HIERARCHY
ROOT Hips
{
  OFFSET 5.70366 102.999 -1.77653
  CHANNELS 6 Xposition Yposition Zposition Zrotation Xrotation Yrotation
  JOINT RightUpLeg
  {
    OFFSET -8.9458 -8.66707 0.101652
    CHANNELS 3 Zrotation Xrotation Yrotation
    JOINT RightLeg
    {
      OFFSET 0 -44.4227 1.3727
      CHANNELS 3 Zrotation Xrotation Yrotation
      JOINT RightFoot
      {
        OFFSET 0.253549 -42.0924 -1.46059
        CHANNELS 3 Zrotation Xrotation Yrotation
        JOINT RightToes
        {
          OFFSET 0.04 -4.41509 8.4991
          CHANNELS 3 Zrotation Xrotation Yrotation
          End Site
          {
            OFFSET -0.08 -0.137448 9.77979
          }
        }
      }
    }
  }
  JOINT Spine
  {
    OFFSET 0 11.8905 0
    CHANNELS 3 Zrotation Xrotation Yrotation
    JOINT Spine1
    {
      OFFSET 0 25.6574 0.127663
      CHANNELS 3 Zrotation Xrotation Yrotation
      JOINT HEad
      {
        OFFSET 0 8.73416 0.011341
        CHANNELS 3 Zrotation Xrotation Yrotation
        End Site
        {
          OFFSET -0.29 12.7742 2.51395
        }
      }
      JOINT LeftShoulder1
      {
        OFFSET 8.99 -0.362252 -0.22
        CHANNELS 3 Zrotation Xrotation Yrotation
        JOINT LeftArm
        {
          OFFSET 10.2827 -0.00337999 0.322123
          CHANNELS 3 Zrotation Xrotation Yrotation
          JOINT LeftForeArm
          {
            OFFSET 26.2597 0.099144 -1.42434
            CHANNELS 3 Zrotation Xrotation Yrotation
            JOINT LeftHand
            {
              OFFSET 22.0902 0.085362 1.02216
              CHANNELS 3 Zrotation Xrotation Yrotation
              End Site
              {
                OFFSET 13.419 -0.6 1.50291
              }
            }
          }
        }
      }
      JOINT RightShoulder
      {
        OFFSET -8.99 -0.362252 -0.22
        CHANNELS 3 Zrotation Xrotation Yrotation
        JOINT RightArm
        {
          OFFSET -10.2827 -0.00338 0.322123
          CHANNELS 3 Zrotation Xrotation Yrotation
          JOINT RightForeArm
          {
            OFFSET -26.364 0.099144 -1.42434
            CHANNELS 3 Zrotation Xrotation Yrotation
            JOINT RightHand
            {
              OFFSET -22.0324 0.085362 1.02216
              CHANNELS 3 Zrotation Xrotation Yrotation
              End Site
              {
                OFFSET -13.3284 -0.6 1.50291
              }
            }
          }
        }
      }
    }
  }
  JOINT LeftUpLeg
  {
    OFFSET 8.9458 -8.66707 0.101652
    CHANNELS 3 Zrotation Xrotation Yrotation
    JOINT LeftLeg
    {
      OFFSET 0 -44.4227 1.3727
      CHANNELS 3 Zrotation Xrotation Yrotation
      JOINT LeftFoot
      {
        OFFSET -0.253549 -42.0924 -1.46059
        CHANNELS 3 Zrotation Xrotation Yrotation
        JOINT LeftToes
        {
          OFFSET -0.04 -4.41509 8.4991
          CHANNELS 3 Zrotation Xrotation Yrotation
          End Site
          {
            OFFSET 0.08 -0.047448 9.77979
          }
        }
      }
    }
  }
}
MOTION
Frames:	17
Frame Time:	0.0416667
-195.879 104.458 9.39342 0.922014 -0.515893 84.7779 -2.26184 -3.06389 -3.50704 -0.896685 12.0811 -6.30267 -2.4846 -3.76245 -0.0613841 0.0462048 0.000530889 0.662642 0.646341 -0.486186 -0.150524 -1.8584 2.80932 0.178687 2.24748 5.59709 -0.119478 -31.5859 -2.39743 10.0476 -48.668 -20.6459 -15.6481 -10.8407 60.7748 -3.53112 1.42342 9.83506 -6.83749 42.0537 0.876387 -2.34215 33.0869 -1.83504 12.8271 3.61704 46.8355 14.8813 -1.55683 9.8619 1.51459 1.9364 -1.03515 4.06383 2.37545 9.63948 22.537 -1.43261 -1.80278 0.070519 -1.33985e-009 8.75226e-006 -1.4644e-008 
-195.866 104.458 9.39235 0.892559 -0.482924 84.7615 -2.30192 -3.06749 -3.52677 -0.888109 12.0294 -6.26527 -2.45172 -3.76245 -0.0613841 0.0462048 0.000530889 0.662642 0.597793 -0.567295 -0.181132 -1.83622 2.93841 0.143574 2.22016 5.20598 0.463936 -31.6073 -2.41778 10.0975 -48.7346 -20.8677 -15.7013 -10.9253 60.9598 -3.3486 1.34001 9.84409 -6.75364 41.9902 0.900296 -2.29112 33.2216 -2.07195 12.8945 3.64884 47.0088 14.8015 -1.60482 9.86131 1.64145 1.90275 -1.02639 4.04038 2.37867 9.58263 22.5603 -1.474 -1.75891 0.0705173 -1.33985e-009 8.75226e-006 -1.4644e-008 
-195.85 104.458 9.38229 0.776249 -0.460932 84.741 -2.33147 -3.20953 -3.54152 -0.876866 12.0664 -6.2336 -2.42434 -3.75806 -0.0613838 0.0462048 0.000530889 0.662642 0.648603 -0.655647 -0.206635 -1.84492 3.01722 0.120631 2.21284 4.87074 1.04861 -31.5945 -2.41112 10.0822 -49.041 -21.7138 -15.8083 -11.2554 61.7647 -2.6193 1.24342 9.85437 -6.67657 41.9251 0.8758 -2.33941 33.2998 -1.82262 13.0006 3.54109 46.7724 14.9537 -1.54315 9.86196 1.49961 1.86281 -1.04965 3.98589 2.39042 9.40736 22.6109 -1.43673 -1.75034 0.070517 -1.33985e-009 8.75226e-006 -1.4644e-008 
-195.845 104.458 9.38618 0.539231 -0.462049 84.7021 -2.29645 -3.48024 -3.49988 -0.87766 12.0951 -6.23744 -2.49022 -3.77782 -0.0615018 0.0462048 0.000530889 0.662642 0.743636 -0.693255 -0.163266 -1.84581 2.85984 0.162489 2.19551 5.22552 0.785004 -31.5581 -2.37631 9.99665 -49.2838 -22.4782 -15.8285 -11.6842 62.6139 -1.78827 1.32846 9.84587 -6.55994 41.9591 0.808548 -2.47855 33.1358 -1.07401 12.9324 3.28322 45.9729 15.3614 -1.37547 9.86285 1.28226 1.87974 -1.24372 3.95413 2.39079 9.30171 22.6877 -1.38766 -1.74033 0.0705166 -1.33985e-009 8.75226e-006 -1.4644e-008 
-195.822 104.455 9.43501 0.279497 -0.437694 84.6256 -2.25838 -3.76748 -3.44673 -0.878242 12.1518 -6.22037 -2.49328 -3.94962 -0.0661566 0.0462048 0.000530889 0.662642 0.662503 -0.824947 -0.141242 -1.66003 2.83123 0.150997 2.10884 5.71811 0.693238 -31.6881 -2.43716 10.1347 -49.1617 -22.6553 -15.8482 -11.8928 62.6644 -1.48743 1.30835 9.84849 -6.34598 41.9664 0.83388 -2.42672 32.8728 -0.323885 12.7064 3.13385 44.8971 15.6894 -1.41935 9.86002 1.41267 1.92067 -1.51225 3.95592 2.36918 9.32964 22.7713 -1.43615 -1.74222 0.0705167 -1.33985e-009 8.75226e-006 -1.4644e-008 
-195.789 104.435 9.51824 0.119731 -0.36979 84.5271 -2.26182 -4.05175 -3.41723 -0.892789 12.4316 -6.14964 -2.36707 -4.27691 -0.0791689 0.0462048 0.000530889 0.662642 0.546154 -0.869607 -0.206054 -1.48461 2.90765 0.0587438 2.02964 5.91877 1.24244 -31.9131 -2.56222 10.4233 -48.9452 -22.8193 -15.9592 -11.9487 62.6596 -1.36942 1.23535 9.85601 -6.30671 41.9082 0.945565 -2.19543 32.6848 0.592491 12.3916 2.91749 43.6335 16.1155 -1.60712 9.84822 1.57234 1.89372 -1.63901 3.91073 2.38667 9.2984 22.9111 -1.45975 -1.76228 0.0705174 -1.33985e-009 8.75226e-006 -1.4644e-008 
-195.772 104.409 9.65005 -0.00818088 -0.291296 84.4221 -2.20611 -4.38529 -3.29542 -0.977479 12.8434 -6.14765 -2.35967 -4.63042 -0.0890178 0.0462048 0.000530889 0.662642 0.548338 -0.547697 -0.201861 -1.50355 2.57692 0.0658216 2.05231 6.18144 1.31238 -31.977 -2.57028 10.4332 -48.8183 -23.1006 -15.9966 -12.1775 63.469 -1.02409 1.55903 9.82229 -6.51279 41.8454 0.94917 -2.18587 32.7008 1.37851 11.9278 2.50188 42.6647 16.6856 -1.69206 9.8429 1.60869 1.89482 -1.7364 3.89562 2.39425 9.26087 23.0702 -1.51683 -1.75465 0.0733897 -1.33985e-009 8.75226e-006 -1.4644e-008 
-195.725 104.375 9.86985 -0.188353 -0.206719 84.3852 -2.03981 -4.80652 -3.01519 -1.13934 13.3971 -6.40173 -2.57914 -5.0937 -0.0967271 0.0462048 0.000530889 0.662642 0.463695 -0.172108 -0.129954 -1.43672 2.16454 0.123261 2.08917 6.47577 0.985349 -31.9341 -2.51798 10.3044 -48.5571 -22.7455 -15.9955 -12.126 63.2853 -1.30626 1.69142 9.80819 -6.6058 41.7009 0.848808 -2.38818 32.8977 1.5431 11.3788 2.19362 42.1095 17.0456 -1.77405 9.83544 1.86818 2.0334 -1.97988 4.01437 2.28843 9.45322 22.9778 -1.72131 -1.82771 0.0832275 -1.33985e-009 8.75226e-006 -1.4644e-008 
-195.628 104.313 10.1679 -0.376613 -0.0762869 84.5314 -1.85787 -5.34197 -2.66021 -1.3074 14.3045 -6.92569 -2.90151 -5.79249 -0.111841 0.0462048 0.000530889 0.662642 0.257313 -0.0581 -0.23213 -1.25838 2.25767 -0.00662733 2.15659 6.46262 1.25341 -31.885 -2.55596 10.4119 -48.1733 -21.6357 -16.0904 -11.0428 60.0673 -2.98007 0.934652 9.88632 -6.49736 41.567 0.850064 -2.38156 33.0158 1.52738 10.7881 1.95565 41.2885 17.3545 -1.82332 9.83122 2.14067 2.15274 -2.26852 4.07775 2.21642 9.72885 22.6783 -1.86455 -1.96827 0.0891096 -1.33985e-009 8.75226e-006 -1.4644e-008 
-195.514 104.247 10.5477 -0.615785 0.104059 84.8431 -1.68856 -5.96554 -2.28896 -1.39838 15.3393 -7.57379 -3.28798 -6.58361 -0.133534 0.0462048 0.000530889 0.662642 0.0659945 -0.00787741 -0.481416 -1.1943 2.50422 -0.262107 2.38752 6.22945 1.7375 -31.7394 -2.59954 10.5514 -47.8392 -20.1933 -16.1047 -9.56935 54.9364 -5.20855 0.111504 9.97097 -6.51529 41.6172 0.944049 -2.18867 33.0756 1.07168 9.98254 1.59698 40.627 17.7236 -1.658 9.84234 2.06774 2.19864 -2.56778 3.99623 2.28564 9.87007 22.4411 -2.06087 -1.99866 0.0985429 -1.33985e-009 8.75226e-006 -1.4644e-008 
-195.343 104.189 11.0638 -0.979346 0.260172 85.2395 -1.42477 -6.54129 -1.93553 -1.4064 16.1213 -8.30364 -3.7593 -7.32707 -0.158569 0.0462048 0.000530889 0.662642 -0.19398 0.166563 -0.634063 -1.0265 2.46039 -0.441184 2.62756 5.8862 1.7106 -31.5425 -2.55531 10.4703 -47.4439 -18.1564 -16.0759 -8.43721 50.2065 -7.29117 0.0380441 9.98172 -6.91164 41.6412 0.946445 -2.18448 33.356 -0.586802 8.89205 1.36058 40.933 17.7378 -1.36333 9.86185 1.88288 2.42143 -2.95168 4.03157 2.27161 9.99917 21.9634 -2.49942 -2.04495 0.119501 -1.33985e-009 8.75226e-006 -1.4644e-008 
-195.063 104.125 11.7167 -1.32604 0.330877 85.728 -1.02318 -6.85683 -1.66566 -1.37408 16.6196 -9.13702 -4.20927 -8.04817 -0.188736 0.0462048 0.000530889 0.662642 -0.502633 0.487351 -0.718276 -0.607297 2.34539 -0.595105 2.726 5.27592 1.54992 -31.4267 -2.51817 10.3928 -46.9388 -15.5361 -16.4358 -7.66054 46.733 -9.05548 0.309717 9.95587 -7.40685 41.5149 0.9003 -2.27582 33.6446 -2.55561 7.58234 1.35316 41.3435 17.4717 -1.09023 9.87902 1.81189 2.84018 -3.24645 4.19512 2.19298 10.1082 21.1823 -2.74597 -2.13944 0.129944 -1.33985e-009 8.75226e-006 -1.4644e-008 
-194.7 104.068 12.4586 -1.58892 0.360159 86.2179 -0.591013 -6.90809 -1.55909 -1.27693 16.8683 -9.83076 -4.4925 -8.72137 -0.220838 0.0462048 0.000530889 0.662642 -0.636219 0.955429 -0.81393 -0.291646 2.25939 -0.746621 2.84801 4.44064 1.55957 -31.2847 -2.50642 10.3867 -46.4103 -12.9453 -17.0521 -7.00916 44.1488 -10.5361 0.543141 9.93141 -7.73331 41.5105 0.928664 -2.21689 33.5701 -3.90363 6.11899 1.38854 41.4481 17.26 -1.01816 9.88354 1.90595 3.25236 -3.39679 4.26456 2.31247 10.1859 20.7026 -3.11901 -2.13266 0.1482 -1.33985e-009 8.75226e-006 -1.4644e-008 
-194.259 103.979 13.2571 -1.98678 0.390663 86.608 -0.245327 -7.05214 -1.73856 -1.02132 17.0753 -10.1401 -4.59891 -9.39156 -0.253631 0.0462048 0.000530889 0.662642 -0.565087 1.38476 -0.874299 -0.164722 1.99927 -0.829592 3.01019 3.79969 1.62623 -30.9419 -2.43301 10.251 -45.7148 -10.2261 -17.2066 -6.34012 41.2433 -12.0389 0.708632 9.91357 -8.0943 41.6291 0.973201 -2.12873 33.2772 -4.70632 4.70691 1.33725 41.7473 17.1733 -1.17041 9.87294 2.14645 3.72531 -3.95866 4.36292 2.46851 11.0053 20.1898 -4.09202 -2.67127 0.176952 -1.33985e-009 8.75226e-006 -1.4644e-008 
-193.728 103.698 14.0278 -2.56048 0.20224 87.1873 0.177719 -7.57102 -2.18569 -0.596382 17.8787 -10.3889 -4.53956 -10.4352 -0.301721 0.0462048 0.000530889 0.662642 -0.125621 1.75755 -0.988506 0.179863 1.53555 -0.981406 3.12633 3.5979 1.86734 -30.4706 -2.32505 10.0413 -45.1101 -8.12251 -16.8212 -5.85251 38.5411 -13.2086 0.7735 9.90728 -8.7033 41.5465 0.980144 -2.1114 33.087 -4.58015 3.50052 1.03238 41.1598 17.5568 -1.08512 9.87905 2.21368 4.4827 -5.84419 4.19035 2.37507 14.1912 19.642 -3.40196 -4.56249 0.102382 -1.33985e-009 8.75226e-006 -1.4644e-008 
-193.107 103.186 14.6589 -2.98952 -0.413568 88.1532 0.903137 -8.21055 -2.60345 -0.136721 19.4967 -11.0123 -4.26465 -12.0552 -0.3671 0.0462048 0.000530889 0.662642 0.9513 2.2954 -1.16474 0.78127 1.13328 -1.21477 3.39266 3.25661 2.15773 -30.1158 -2.27696 9.97051 -45.2724 -8.74567 -16.4087 -5.80454 38.6466 -13.1462 0.908654 9.89125 -9.2811 41.3383 1.00799 -2.04586 32.8789 -3.9032 2.6641 0.743356 39.2386 18.1797 -0.875008 9.89283 2.24968 5.43994 -9.22842 2.17775 1.66732 20.3664 21.4864 0.569453 -6.87293 0.0216224 -1.33985e-009 8.75226e-006 -1.4644e-008 
-192.293 102.712 15.161 -3.1815 -1.01053 89.0349 1.65546 -8.40232 -2.82895 0.204201 20.9007 -11.7303 -3.96941 -13.6408 -0.422642 0.0462048 0.000530889 0.662642 2.20978 2.74467 -1.11264 1.19667 1.11149 -1.18649 3.81544 2.25946 2.07778 -30.0805 -2.31783 10.0883 -45.9005 -11.9403 -15.8469 -6.11354 41.5209 -11.9477 1.17076 9.85787 -9.42646 41.3285 1.06863 -1.91927 32.3939 -3.78066 2.61787 0.860421 37.6572 18.3261 -1.16212 9.87303 2.79285 6.0093 -13.2726 1.29734 1.09151 27.6874 21.6741 4.10739 -8.21865 0.0524956 -1.33985e-009 8.75226e-006 -1.4644e-008 
